<?xml version="1.0" encoding="utf-8"?>
<!-- Generator: Adobe Illustrator 17.0.0, SVG Export Plug-In . SVG Version: 6.00 Build 0)  -->
<!DOCTYPE svg PUBLIC "-//W3C//DTD SVG 1.1//EN" "http://www.w3.org/Graphics/SVG/1.1/DTD/svg11.dtd">
<svg version="1.1" id="Capa_1" xmlns="http://www.w3.org/2000/svg" xmlns:xlink="http://www.w3.org/1999/xlink" x="0px" y="0px"
	 width="50px" height="50px" viewBox="0 0 50 50" enable-background="new 0 0 50 50" xml:space="preserve">
<g>
	<path d="M44.754,39.873C47.001,44.893,44.34,49,38.84,49H11c-5.5,0-8.161-4.107-5.913-9.127c0,0,6.624-14.793,19.834-14.793
		C38.13,25.08,44.754,39.873,44.754,39.873z"/>
	<path fill="none" stroke="#000000" stroke-linecap="round" stroke-linejoin="round" stroke-miterlimit="10" d="M44.754,39.873
		C47.001,44.893,44.34,49,38.84,49H11c-5.5,0-8.161-4.107-5.913-9.127c0,0,6.624-14.793,19.834-14.793
		C38.13,25.08,44.754,39.873,44.754,39.873z"/>
</g>
<circle stroke="#000000" stroke-miterlimit="10" cx="23.92" cy="11.608" r="10.027"/>
</svg>
