<?xml version="1.0" encoding="utf-8"?>
<!-- Generator: Adobe Illustrator 17.0.0, SVG Export Plug-In . SVG Version: 6.00 Build 0)  -->
<!DOCTYPE svg PUBLIC "-//W3C//DTD SVG 1.1//EN" "http://www.w3.org/Graphics/SVG/1.1/DTD/svg11.dtd">
<svg version="1.1" id="Capa_1" xmlns="http://www.w3.org/2000/svg" xmlns:xlink="http://www.w3.org/1999/xlink" x="0px" y="0px"
	 width="960px" height="560px" viewBox="0 0 960 560" enable-background="new 0 0 960 560" xml:space="preserve">
<g>
	<ellipse fill="#003777" cx="-2844" cy="4975.58" rx="127.68" ry="117.6"/>
	<path fill="#003777" d="M-2661.44,5196.22c-25.76-19.04-63.84-39.2-116.48-50.4h-131.04c-52.64,11.2-90.72,31.36-116.48,50.4
		c-30.24,22.4-47.04,56-47.04,90.72v68.32h458.08v-68.32C-2614.4,5252.22-2631.2,5218.62-2661.44,5196.22z"/>
</g>
<g id="Teléfono">
	<path fill="#003777" d="M578.066,74.039h-135.01l-0.034-39.194c-0.034-16.783-13.63-30.379-30.396-30.345
		c-16.766,0-30.362,13.63-30.345,30.379l0.051,48.841c-27.972,14.443-47.23,43.618-47.23,77.116v162.168
		c0,47.738,7.814,120.583,17.359,161.88C362.014,526.213,408.88,560,456.618,560h86.695c47.738,0,94.604-34.753,104.156-77.185
		c9.545-42.483,17.359-116.26,17.359-163.998V160.836C664.828,113.098,625.787,74.039,578.066,74.039z M499.982,493.817
		c-18.86,0-34.176-15.325-34.176-34.176s15.317-34.142,34.176-34.142c18.885,0,34.142,15.291,34.142,34.142
		S518.868,493.817,499.982,493.817z M606.707,274.147c0,9.544-7.807,17.359-17.343,17.359H410.659
		c-9.535,0-17.359-7.815-17.359-17.359v-108.75c0-9.578,7.824-17.359,17.359-17.359h178.705c9.536,0,17.343,7.781,17.343,17.359
		V274.147z"/>
</g>
</svg>
