<?xml version="1.0" encoding="utf-8"?>
<!-- Generator: Adobe Illustrator 17.0.0, SVG Export Plug-In . SVG Version: 6.00 Build 0)  -->
<!DOCTYPE svg PUBLIC "-//W3C//DTD SVG 1.1//EN" "http://www.w3.org/Graphics/SVG/1.1/DTD/svg11.dtd">
<svg version="1.1" id="Capa_1" xmlns="http://www.w3.org/2000/svg" xmlns:xlink="http://www.w3.org/1999/xlink" x="0px" y="0px"
	 width="960px" height="560px" viewBox="0 0 960 560" enable-background="new 0 0 960 560" xml:space="preserve">
<g>
	<ellipse fill="#003777" cx="-2844" cy="4975.58" rx="127.68" ry="117.6"/>
	<path fill="#003777" d="M-2661.44,5196.22c-25.76-19.04-63.84-39.2-116.48-50.4h-131.04c-52.64,11.2-90.72,31.36-116.48,50.4
		c-30.24,22.4-47.04,56-47.04,90.72v68.32h458.08v-68.32C-2614.4,5252.22-2631.2,5218.62-2661.44,5196.22z"/>
</g>
<g id="Correo_electrónico">
	<path fill="#003777" d="M142.69,31.11v494.97h680.62V31.11H142.69z M699.72,103.29L483,259.25L266.28,103.29H699.72z M194.25,140.4
		l177.62,127.81L194.25,453.46V140.4z M216.93,474.52l180.31-188.06L483,348.18l85.77-61.72l180.21,188.06H216.93z M771.75,453.54
		L594.15,268.2l177.6-127.8V453.54z"/>
	<polygon fill="#FFFFFF" points="771.75,140.4 771.75,453.54 594.15,268.2 	"/>
	<polygon fill="#F9F9F9" points="699.72,103.29 483,259.25 266.28,103.29 	"/>
	<polygon fill="#FFFFFF" points="371.87,268.21 194.25,453.46 194.25,140.4 	"/>
	<polygon fill="#FFFFFF" points="748.98,474.52 216.93,474.52 397.24,286.46 483,348.18 568.77,286.46 	"/>
</g>
</svg>
