<?xml version="1.0" encoding="utf-8"?>
<!-- Generator: Adobe Illustrator 17.0.0, SVG Export Plug-In . SVG Version: 6.00 Build 0)  -->
<!DOCTYPE svg PUBLIC "-//W3C//DTD SVG 1.1//EN" "http://www.w3.org/Graphics/SVG/1.1/DTD/svg11.dtd">
<svg version="1.1"
	 id="svg12" xmlns:dc="http://purl.org/dc/elements/1.1/" xmlns:svg="http://www.w3.org/2000/svg" xmlns:inkscape="http://www.inkscape.org/namespaces/inkscape" xmlns:sodipodi="http://sodipodi.sourceforge.net/DTD/sodipodi-0.dtd" xmlns:cc="http://creativecommons.org/ns#" xmlns:rdf="http://www.w3.org/1999/02/22-rdf-syntax-ns#" inkscape:version="0.92.3 (2405546, 2018-03-11)" sodipodi:docname="Icono_User_superior.svg"
	 xmlns="http://www.w3.org/2000/svg" xmlns:xlink="http://www.w3.org/1999/xlink" x="0px" y="0px" width="50px" height="50px"
	 viewBox="0 0 50 50" enable-background="new 0 0 50 50" xml:space="preserve">
<sodipodi:namedview  inkscape:cy="25" inkscape:cx="-11.864407" inkscape:zoom="4.72" showgrid="false" guidetolerance="10" gridtolerance="10" objecttolerance="10" bordercolor="#666666" pagecolor="#ffffff" id="namedview14" borderopacity="1" inkscape:current-layer="Capa_2" inkscape:window-maximized="1" inkscape:window-y="0" inkscape:window-x="0" inkscape:window-height="714" inkscape:window-width="1366" inkscape:pageopacity="0" inkscape:pageshadow="2">
	</sodipodi:namedview>
<g id="Capa_2_1_">
</g>
<path fill="#DFBC1D" d="M24.92,22.82c-2.7,0-4.9-2.2-4.9-4.9s2.2-4.89,4.9-4.89s4.89,2.19,4.89,4.89S27.62,22.82,24.92,22.82z"/>
<path fill="#DFBC1D" d="M35.43,29.34v5.63H14.4v-5.63c0-1.4,4.1-3.42,10.52-3.42C31.33,25.92,35.43,27.94,35.43,29.34z"/>
<path fill="#DFBD1E" d="M25,0C11.19,0,0,11.19,0,25s11.19,25,25,25s25-11.19,25-25S38.81,0,25,0z M37.43,35.97c0,0.55-0.45,1-1,1
	H13.4c-0.55,0-1-0.45-1-1v-6.63c0-2.93,4.46-4.73,9.45-5.25c-2.27-1.13-3.83-3.47-3.83-6.17c0-3.8,3.1-6.89,6.9-6.89
	s6.89,3.09,6.89,6.89c0,2.7-1.55,5.04-3.82,6.17c4.98,0.52,9.44,2.32,9.44,5.25C37.43,29.34,37.43,35.97,37.43,35.97z"/>
</svg>
