<?xml version="1.0" encoding="utf-8"?>
<!-- Generator: Adobe Illustrator 17.0.0, SVG Export Plug-In . SVG Version: 6.00 Build 0)  -->
<!DOCTYPE svg PUBLIC "-//W3C//DTD SVG 1.1//EN" "http://www.w3.org/Graphics/SVG/1.1/DTD/svg11.dtd">
<svg version="1.1" id="Capa_1" xmlns="http://www.w3.org/2000/svg" xmlns:xlink="http://www.w3.org/1999/xlink" x="0px" y="0px"
	 width="960px" height="560px" viewBox="0 0 960 560" enable-background="new 0 0 960 560" xml:space="preserve">
<g>
	<ellipse fill="#003777" cx="-2844" cy="4975.58" rx="127.68" ry="117.6"/>
	<path fill="#003777" d="M-2661.44,5196.22c-25.76-19.04-63.84-39.2-116.48-50.4h-131.04c-52.64,11.2-90.72,31.36-116.48,50.4
		c-30.24,22.4-47.04,56-47.04,90.72v68.32h458.08v-68.32C-2614.4,5252.22-2631.2,5218.62-2661.44,5196.22z"/>
</g>
<g>
	<ellipse fill="#003777" cx="205.76" cy="531.42" rx="137.76" ry="124.32"/>
	<path fill="#003777" d="M402.88,764.38c-28-20.16-69.44-41.44-125.44-53.76H135.2c-57.12,12.32-97.44,33.6-125.44,53.76
		c-32.48,23.52-51.52,59.36-51.52,96.32v71.68H454.4V860.7C454.4,822.62,435.36,787.9,402.88,764.38z"/>
</g>
</svg>
