<?xml version="1.0" encoding="utf-8"?>
<!-- Generator: Adobe Illustrator 19.0.0, SVG Export Plug-In . SVG Version: 6.00 Build 0)  -->
<svg version="1.1"
	 id="svg12" xmlns:dc="http://purl.org/dc/elements/1.1/" xmlns:cc="http://creativecommons.org/ns#" xmlns:rdf="http://www.w3.org/1999/02/22-rdf-syntax-ns#" xmlns:svg="http://www.w3.org/2000/svg" xmlns:sodipodi="http://sodipodi.sourceforge.net/DTD/sodipodi-0.dtd" xmlns:inkscape="http://www.inkscape.org/namespaces/inkscape" sodipodi:docname="Icono_User_superior.svg" inkscape:version="0.92.3 (2405546, 2018-03-11)"
	 xmlns="http://www.w3.org/2000/svg" xmlns:xlink="http://www.w3.org/1999/xlink" x="0px" y="0px" viewBox="-272 395.9 50 50"
	 style="enable-background:new -272 395.9 50 50;" xml:space="preserve">
<style type="text/css">
	.st0{opacity:0.86;}
	.st1{fill:#FFC703;}
</style>
<sodipodi:namedview  inkscape:cy="25" inkscape:cx="-11.864407" inkscape:zoom="4.72" showgrid="false" guidetolerance="10" gridtolerance="10" pagecolor="#ffffff" borderopacity="1" bordercolor="#666666" objecttolerance="10" id="namedview14" inkscape:current-layer="Capa_2" inkscape:window-maximized="1" inkscape:window-y="0" inkscape:window-x="0" inkscape:pageopacity="0" inkscape:window-height="714" inkscape:window-width="1366" inkscape:pageshadow="2">
	</sodipodi:namedview>
<g id="Capa_2_1_">
</g>
<g class="st0">
	<path class="st1" d="M-519.2,792.6c-13.4,0-24.2,10.7-24.2,24c0,13.2,10.8,24,24.2,24c13.4,0,24.2-10.7,24.2-24
		C-495,803.3-505.8,792.6-519.2,792.6z M-507.9,828.2h-22.5V824c0-2,0.9-3.9,2.5-5.1c1.3-1.1,2.9-1.8,4.7-2.4
		c-1.5-1.2-2.5-3.1-2.5-5.2c0-3.6,3-6.6,6.7-6.6s6.7,3,6.7,6.6c0,2.1-1,3.9-2.5,5.2c1.8,0.5,3.3,1.3,4.7,2.4l0,0
		c1.6,1.2,2.5,3.1,2.5,5.1v4.2H-507.9z"/>
	<path class="st1" d="M-511.5,820.3c-1.3-1.1-3-1.8-4.8-2.3h-2.9l0,0l0,0h-2.9c-1.9,0.4-3.5,1.2-4.8,2.3c-1.2,0.9-1.8,2.3-1.8,3.8
		v2.4h19.1v-2.4C-509.7,822.6-510.3,821.2-511.5,820.3z"/>
	<path class="st1" d="M-519.2,816.3L-519.2,816.3c2.7,0,4.9-2.2,4.9-4.9c0-2.7-2.2-4.9-4.9-4.9s-4.9,2.2-4.9,4.9
		S-521.9,816.3-519.2,816.3z"/>
</g>
<g class="st0">
	<path class="st1" d="M-247.2,396.8c-13,0-23.5,10.8-23.5,24.1c0,13.3,10.5,24.1,23.5,24.1c13,0,23.5-10.8,23.5-24.1
		C-223.8,407.6-234.3,396.8-247.2,396.8z M-236.3,432.6h-21.9v-4.2c0-2,0.9-3.9,2.4-5.1c1.3-1.1,2.8-1.8,4.5-2.4
		c-1.5-1.2-2.4-3.1-2.4-5.2c0-3.6,2.9-6.6,6.5-6.6s6.5,3,6.5,6.6c0,2.1-1,4-2.4,5.2c1.7,0.5,3.2,1.3,4.5,2.4h0
		c1.5,1.2,2.4,3.1,2.4,5.1V432.6z"/>
	<path class="st1" d="M-239.8,424.7c-1.3-1.1-2.9-1.8-4.7-2.3h-2.8c0,0,0,0,0,0c0,0,0,0,0,0h-2.8c-1.8,0.4-3.4,1.2-4.7,2.3
		c-1.1,0.9-1.8,2.3-1.8,3.8v2.4h18.5v-2.4C-238,427-238.6,425.6-239.8,424.7z"/>
	<path class="st1" d="M-247.3,420.6L-247.3,420.6c2.7,0,4.8-2.2,4.8-4.9c0-2.7-2.1-4.9-4.8-4.9s-4.8,2.2-4.8,4.9
		C-252,418.5-249.9,420.6-247.3,420.6z"/>
</g>
</svg>
