<?xml version="1.0" encoding="utf-8"?>
<!-- Generator: Adobe Illustrator 19.0.0, SVG Export Plug-In . SVG Version: 6.00 Build 0)  -->
<svg version="1.1" id="Capa_1" xmlns="http://www.w3.org/2000/svg" xmlns:xlink="http://www.w3.org/1999/xlink" x="0px" y="0px"
	 viewBox="-272 395.9 50 50" style="enable-background:new -272 395.9 50 50;" xml:space="preserve">
<style type="text/css">
	.st0{fill:#003777;}
</style>
<g>
	<ellipse class="st0" cx="-519.5" cy="804.8" rx="11.4" ry="10.5"/>
	<path class="st0" d="M-503.2,824.5c-2.3-1.7-5.7-3.5-10.4-4.5h-11.7c-4.7,1-8.1,2.8-10.4,4.5c-2.7,2-4.2,5-4.2,8.1v6.1h40.9v-6.1
		C-499,829.5-500.5,826.5-503.2,824.5z"/>
</g>
<g>
	<ellipse class="st0" cx="-247.2" cy="408" rx="12.3" ry="11.1"/>
	<path class="st0" d="M-229.6,428.8c-2.5-1.8-6.2-3.7-11.2-4.8h-12.7c-5.1,1.1-8.7,3-11.2,4.8c-2.9,2.1-4.6,5.3-4.6,8.6v6.4h44.3
		v-6.4C-225,434-226.7,430.9-229.6,428.8z"/>
</g>
</svg>
