<?xml version="1.0" encoding="utf-8"?>
<!-- Generator: Adobe Illustrator 19.0.0, SVG Export Plug-In . SVG Version: 6.00 Build 0)  -->
<svg version="1.1" id="Capa_1" xmlns="http://www.w3.org/2000/svg" xmlns:xlink="http://www.w3.org/1999/xlink" x="0px" y="0px"
	 viewBox="-272 395.9 50 50" style="enable-background:new -272 395.9 50 50;" xml:space="preserve">
<style type="text/css">
	.st0{fill:#003777;}
</style>
<g>
	<path class="st0" d="M-527.6,809.5v-5c0-4,3.9-7.2,8.6-7.2c4.8,0,8.6,3.2,8.6,7.2v5h4.8v-5c0-6.2-6-11.3-13.4-11.3
		c-7.4,0-13.4,5.1-13.4,11.3v5H-527.6z"/>
	<path class="st0" d="M-503.2,813.7h-31.6c-2.8,0-5.1,1.9-5.1,4.3v18.1c0,2.4,2.3,4.3,5.1,4.3h31.6c2.8,0,5.1-1.9,5.1-4.3v-18.2
		C-498.1,815.6-500.4,813.7-503.2,813.7z M-519,833.3c-2.9,0-5.3-2-5.3-4.5c0-1.5,0.8-2.7,2.1-3.5c-0.6-0.6-0.9-1.3-0.9-2.2
		c0-1.9,1.8-3.5,4.1-3.5c2.3,0,4.1,1.5,4.1,3.5c0,0.8-0.4,1.6-0.9,2.2c1.3,0.8,2.1,2.1,2.1,3.5C-513.7,831.3-516.1,833.3-519,833.3z
		"/>
</g>
<g>
	<path class="st0" d="M-254.4,413.6v-5.1c0-4,3.3-7.3,7.4-7.3c4.1,0,7.4,3.3,7.4,7.3v5.1h4.1v-5.1c0-6.3-5.2-11.4-11.5-11.4
		c-6.3,0-11.5,5.1-11.5,11.4v5.1H-254.4z"/>
	<path class="st0" d="M-233.6,417.8h-27c-2.4,0-4.4,1.9-4.4,4.3v18.4c0,2.4,1.9,4.3,4.4,4.3h27c2.4,0,4.4-1.9,4.4-4.3v-18.4
		C-229.2,419.8-231.2,417.8-233.6,417.8z M-247.1,437.7c-2.5,0-4.5-2-4.5-4.5c0-1.5,0.7-2.8,1.8-3.6c-0.5-0.6-0.8-1.4-0.8-2.2
		c0-1.9,1.6-3.5,3.5-3.5c1.9,0,3.5,1.6,3.5,3.5c0,0.8-0.3,1.6-0.8,2.2c1.1,0.8,1.8,2.1,1.8,3.6
		C-242.5,435.7-244.6,437.7-247.1,437.7z"/>
</g>
</svg>
