<?xml version="1.0" encoding="utf-8"?>
<!-- Generator: Adobe Illustrator 19.0.0, SVG Export Plug-In . SVG Version: 6.00 Build 0)  -->
<svg version="1.1" id="Capa_1" xmlns="http://www.w3.org/2000/svg" xmlns:xlink="http://www.w3.org/1999/xlink" x="0px" y="0px"
	 viewBox="-272 395.9 50 50" style="enable-background:new -272 395.9 50 50;" xml:space="preserve">
<style type="text/css">
	.st0{fill:#003777;}
	.st1{fill:#FFC703;}
</style>
<g>
	<path class="st0" d="M-527.6,809.5v-5c0-4,3.9-7.2,8.6-7.2c4.8,0,8.6,3.2,8.6,7.2v5h4.8v-5c0-6.2-6-11.3-13.4-11.3
		c-7.4,0-13.4,5.1-13.4,11.3v5H-527.6z"/>
	<path class="st0" d="M-503.2,813.7h-31.6c-2.8,0-5.1,1.9-5.1,4.3v18.1c0,2.4,2.3,4.3,5.1,4.3h31.6c2.8,0,5.1-1.9,5.1-4.3v-18.2
		C-498.1,815.6-500.4,813.7-503.2,813.7z M-519,833.3c-2.9,0-5.3-2-5.3-4.5c0-1.5,0.8-2.7,2.1-3.5c-0.6-0.6-0.9-1.3-0.9-2.2
		c0-1.9,1.8-3.5,4.1-3.5c2.3,0,4.1,1.5,4.1,3.5c0,0.8-0.4,1.6-0.9,2.2c1.3,0.8,2.1,2.1,2.1,3.5C-513.7,831.3-516.1,833.3-519,833.3z
		"/>
</g>
<g>
	<path class="st1" d="M-255.2,413.1v-5c0-4,3.5-7.2,7.7-7.2c4.3,0,7.7,3.2,7.7,7.2v5h4.3v-5c0-6.2-5.4-11.2-12.1-11.2
		c-6.7,0-12.1,5-12.1,11.2v5H-255.2z"/>
	<path class="st1" d="M-233.3,417.3h-28.3c-2.5,0-4.6,1.9-4.6,4.2v18c0,2.3,2,4.2,4.6,4.2h28.3c2.5,0,4.6-1.9,4.6-4.2v-18
		C-228.7,419.2-230.8,417.3-233.3,417.3z M-247.5,436.8c-2.6,0-4.8-2-4.8-4.4c0-1.4,0.8-2.7,1.9-3.5c-0.5-0.6-0.8-1.3-0.8-2.2
		c0-1.9,1.7-3.4,3.7-3.4c2,0,3.7,1.5,3.7,3.4c0,0.8-0.3,1.6-0.8,2.2c1.2,0.8,1.9,2.1,1.9,3.5C-242.7,434.8-244.9,436.8-247.5,436.8z
		"/>
</g>
</svg>
