<?xml version="1.0" encoding="utf-8"?>
<!-- Generator: Adobe Illustrator 19.0.0, SVG Export Plug-In . SVG Version: 6.00 Build 0)  -->
<svg version="1.1" id="Capa_1" xmlns="http://www.w3.org/2000/svg" xmlns:xlink="http://www.w3.org/1999/xlink" x="0px" y="0px"
	 viewBox="0 0 50 50" style="enable-background:new 0 0 50 50;" xml:space="preserve">
<style type="text/css">
	.st0{fill:#FFDD18;}
	.st1{fill:#D1D3D4;}
	.st2{fill:#FAEA27;}
	.st3{fill:#FFFFFF;}
	.st4{font-family:'Neon80s';}
	.st5{font-size:5.482px;}
</style>
<g id="XMLID_27_">
	<g id="XMLID_56_">
		<polygon id="XMLID_61_" class="st0" points="3.7,40.7 7.4,33.1 10.2,34.8 6.5,42.5 		"/>
		<g id="XMLID_58_">
			<polygon id="XMLID_60_" class="st1" points="3.7,43.3 3.8,44.4 4.6,43.9 			"/>
			<polygon id="XMLID_59_" class="st0" points="3.7,42.9 4.9,43.7 6.3,42.8 3.6,41.1 			"/>
		</g>
		<path id="XMLID_57_" class="st2" d="M7.6,32.7C8,31.8,9,31.5,9.8,32c0.8,0.5,1.1,1.6,0.6,2.5L7.6,32.7z"/>
	</g>
	<polygon id="XMLID_55_" class="st3" points="46.5,34.9 26.3,34.9 26.3,35.4 46.5,35.4 46.5,44.8 3.7,44.8 3.7,45.3 46.5,45.3 
		46.9,45.3 46.9,44.8 46.9,35.4 46.9,34.9 	"/>
	<ellipse id="XMLID_54_" class="st3" cx="3.7" cy="44.8" rx="0.6" ry="0.7"/>
	<rect id="XMLID_53_" x="24.7" y="34.9" class="st3" width="1.2" height="0.5"/>
	<rect id="XMLID_52_" x="23" y="34.9" class="st3" width="1.2" height="0.5"/>
	<rect id="XMLID_51_" x="21.4" y="34.9" class="st3" width="1.2" height="0.5"/>
	<g id="XMLID_48_">
		<g id="XMLID_49_">
			<path id="XMLID_50_" class="st3" d="M20.2,28.7L17,29.5l0.1,0.6l3.5-0.9C20.4,29,20.3,28.9,20.2,28.7z"/>
		</g>
	</g>
	<g id="XMLID_127_">
		<g id="XMLID_41_">
			<g id="XMLID_44_">
				<path id="XMLID_45_" class="st3" d="M19.9,8.5l-6.8,1.8c0,0,0,0,0,0c-0.7,0.2-1.2,0.6-1.5,1.2c-0.5,1-0.2,2.1-0.2,2.3l3.4,16.6
					c0.3,1.3,1.4,2.1,2.5,1.8l6.6-1.7l-1.3,0c-0.5,0-0.9-0.1-1.3-0.3l-4.2,1.1c-0.7,0.2-1.3-0.3-1.5-1c-0.2-0.7,0.3-1.5,0.9-1.7
					l3-0.8L19.9,8.5z M15.4,28.3l-3-14.8l0,0c0,0-0.2-0.9,0.1-1.5c0-0.1,0.1-0.2,0.2-0.2l3.3,16.1C15.7,27.9,15.5,28.1,15.4,28.3z"
					/>
			</g>
			<g id="XMLID_42_">
				<path id="XMLID_43_" class="st3" d="M25.4,26.6l-2.6,0l0,0.6l2.6,0C25.4,27,25.4,26.8,25.4,26.6z"/>
			</g>
		</g>
		<g id="XMLID_29_">
			<g id="XMLID_37_">
				<path id="XMLID_38_" class="st3" d="M28.6,6.8l-5.5,0c0,0,0,0,0,0c-0.7,0-1.3,0.3-1.7,0.8c-0.7,0.8-0.6,2-0.6,2.2l-0.1,17
					c0,1.3,0.9,2.4,2.1,2.4l3.1,0c-0.2-0.3-0.4-0.6-0.5-1l-2.6,0c-0.7,0-1.2-0.6-1.2-1.4c0-0.8,0.6-1.4,1.2-1.4l2.6,0L28.6,6.8z
					 M21.7,9.7c0,0-0.1-0.9,0.4-1.4c0.1-0.1,0.1-0.1,0.2-0.2l-0.1,16.5c-0.2,0.1-0.4,0.2-0.6,0.3L21.7,9.7L21.7,9.7z"/>
			</g>
			<g id="XMLID_32_">
				<g id="XMLID_33_">
					<path id="XMLID_34_" class="st3" d="M28.8,25.5l12.8,2.5l3.1-19.4L32.1,6.1c0,0,0,0,0,0c-0.7-0.1-1.4,0.1-1.9,0.5
						c-0.8,0.7-1,1.9-1,2.1l-2.8,17.8c-0.2,1.4,0.6,2.7,1.8,2.9L41,32l0.2-1l-12.8-2.5c-0.7-0.1-1.2-0.9-1.1-1.7
						C27.4,25.9,28.1,25.4,28.8,25.5z M30.1,8.9c0,0,0.1-0.9,0.6-1.4c0.1-0.1,0.2-0.1,0.2-0.2l-2.7,17.2c-0.2,0-0.5,0.1-0.7,0.2
						L30.1,8.9L30.1,8.9z"/>
				</g>
			</g>
			<g id="XMLID_30_">
				<polygon id="XMLID_31_" class="st3" points="40.1,29.6 28.6,27.3 28.7,26.7 40.2,29 				"/>
			</g>
		</g>
	</g>
	<text id="XMLID_28_" transform="matrix(0.6201 0 0 1 9.2379 42.3836)" class="st3 st4 st5">UNAH INTERCAMBIOS</text>
</g>
</svg>
